<svg width="680" height="520" viewBox="0 0 680 520" xmlns="http://www.w3.org/2000/svg" font-family="Helvetica, Arial, sans-serif">
<title>Physical topology - Tlou Amusement Arcade &amp; Family Fun Centre</title>
<defs>
<marker id="arrow" viewBox="0 0 10 10" refX="8" refY="5" markerWidth="6" markerHeight="6" orient="auto-start-reverse">
<path d="M2 1L8 5L2 9" fill="none" stroke="#333333" stroke-width="1.5" stroke-linecap="round" stroke-linejoin="round"/>
</marker>
</defs>
<rect width="680" height="520" fill="#ffffff"/>

<rect x="270" y="20" width="140" height="44" rx="8" fill="#EDEFF2" stroke="#8A93A3" stroke-width="1"/>
<text x="340" y="47" text-anchor="middle" font-size="15" font-weight="600" fill="#20242C">ISP</text>
<line x1="340" y1="64" x2="340" y2="100" stroke="#333333" stroke-width="1.5" marker-end="url(#arrow)"/>

<rect x="250" y="100" width="180" height="56" rx="8" fill="#DCEBFB" stroke="#3B8BD4" stroke-width="1"/>
<text x="340" y="124" text-anchor="middle" font-size="15" font-weight="600" fill="#0F3E6E">Border router</text>
<text x="340" y="143" text-anchor="middle" font-size="12" fill="#0F3E6E">NAT, inter-VLAN routing</text>
<line x1="340" y1="156" x2="340" y2="192" stroke="#333333" stroke-width="1.5" marker-end="url(#arrow)"/>

<rect x="250" y="192" width="180" height="56" rx="8" fill="#DCEBFB" stroke="#3B8BD4" stroke-width="1"/>
<text x="340" y="216" text-anchor="middle" font-size="15" font-weight="600" fill="#0F3E6E">Core switch</text>
<text x="340" y="235" text-anchor="middle" font-size="12" fill="#0F3E6E">Trunk to access layer</text>

<path d="M300 248V280H100V320" fill="none" stroke="#333333" stroke-width="1.2" marker-end="url(#arrow)"/>
<path d="M320 248V280H230V320" fill="none" stroke="#333333" stroke-width="1.2" marker-end="url(#arrow)"/>
<path d="M340 248V320" fill="none" stroke="#333333" stroke-width="1.2" marker-end="url(#arrow)"/>
<path d="M360 248V280H450V320" fill="none" stroke="#333333" stroke-width="1.2" marker-end="url(#arrow)"/>
<path d="M380 248V280H580V320" fill="none" stroke="#333333" stroke-width="1.2" marker-end="url(#arrow)"/>

<rect x="30" y="320" width="140" height="56" rx="8" fill="#DFF3EC" stroke="#2FA57D" stroke-width="1"/>
<text x="100" y="344" text-anchor="middle" font-size="14" font-weight="600" fill="#0E5A3F">Admin switch</text>
<text x="100" y="362" text-anchor="middle" font-size="11" fill="#0E5A3F">Office PCs</text>

<rect x="160" y="320" width="140" height="56" rx="8" fill="#DFF3EC" stroke="#2FA57D" stroke-width="1"/>
<text x="230" y="344" text-anchor="middle" font-size="14" font-weight="600" fill="#0E5A3F">Arcade switch</text>
<text x="230" y="362" text-anchor="middle" font-size="11" fill="#0E5A3F">Kiosks, POS</text>

<rect x="270" y="320" width="140" height="56" rx="8" fill="#DFF3EC" stroke="#2FA57D" stroke-width="1"/>
<text x="340" y="344" text-anchor="middle" font-size="14" font-weight="600" fill="#0E5A3F">Cafe switch</text>
<text x="340" y="362" text-anchor="middle" font-size="11" fill="#0E5A3F">POS terminals</text>

<rect x="380" y="320" width="140" height="56" rx="8" fill="#FCEFDA" stroke="#D98E2F" stroke-width="1"/>
<text x="450" y="344" text-anchor="middle" font-size="14" font-weight="600" fill="#7A4A0C">Guest AP</text>
<text x="450" y="362" text-anchor="middle" font-size="11" fill="#7A4A0C">Patron Wi-Fi</text>

<rect x="510" y="320" width="140" height="56" rx="8" fill="#FBE1DE" stroke="#D95F52" stroke-width="1"/>
<text x="580" y="344" text-anchor="middle" font-size="14" font-weight="600" fill="#7A241A">Printer zone</text>
<text x="580" y="362" text-anchor="middle" font-size="11" fill="#7A241A">Shared printers (CR8)</text>

<line x1="340" y1="248" x2="340" y2="440" stroke="#333333" stroke-width="1.2" stroke-dasharray="4 3" marker-end="url(#arrow)"/>
<rect x="270" y="440" width="140" height="56" rx="8" fill="#EBE1F7" stroke="#8355C9" stroke-width="1"/>
<text x="340" y="464" text-anchor="middle" font-size="14" font-weight="600" fill="#3E1F73">Server</text>
<text x="340" y="482" text-anchor="middle" font-size="11" fill="#3E1F73">DHCP / DNS</text>

<text x="340" y="512" text-anchor="middle" font-size="11" fill="#666666">CMPG325-2026-124 — Tlou Amusement Arcade &amp; Family Fun Centre — Physical Topology</text>
</svg>
